<mxfile host="65bd71144e">
    <diagram id="_eqGWnwsuR5p4Llbmuhu" name="Page-1">
        <mxGraphModel dx="956" dy="623" grid="1" gridSize="10" guides="1" tooltips="1" connect="1" arrows="1" fold="1" page="1" pageScale="1" pageWidth="850" pageHeight="1100" math="0" shadow="0">
            <root>
                <mxCell id="0"/>
                <mxCell id="1" parent="0"/>
                <mxCell id="2" value="OpenShift" style="swimlane;fillColor=#f8cecc;strokeColor=#b85450;" vertex="1" parent="1">
                    <mxGeometry x="60" y="40" width="670" height="380" as="geometry"/>
                </mxCell>
                <mxCell id="3" value="openshift-operators" style="swimlane;" vertex="1" parent="2">
                    <mxGeometry x="10" y="40" width="630" height="110" as="geometry"/>
                </mxCell>
                <mxCell id="4" value="IBM DataPower Gateway" style="rounded=0;whiteSpace=wrap;html=1;fillColor=#dae8fc;strokeColor=#6c8ebf;" vertex="1" parent="3">
                    <mxGeometry x="10" y="30" width="100" height="60" as="geometry"/>
                </mxCell>
                <mxCell id="5" value="CP4I Platform Navigator" style="rounded=0;whiteSpace=wrap;html=1;fillColor=#dae8fc;strokeColor=#6c8ebf;" vertex="1" parent="3">
                    <mxGeometry x="120" y="30" width="100" height="60" as="geometry"/>
                </mxCell>
                <mxCell id="6" value="API Connect" style="rounded=0;whiteSpace=wrap;html=1;fillColor=#dae8fc;strokeColor=#6c8ebf;" vertex="1" parent="3">
                    <mxGeometry x="235" y="30" width="105" height="60" as="geometry"/>
                </mxCell>
                <mxCell id="7" value="Event Streams" style="rounded=0;whiteSpace=wrap;html=1;fillColor=#dae8fc;strokeColor=#6c8ebf;" vertex="1" parent="3">
                    <mxGeometry x="355" y="30" width="105" height="60" as="geometry"/>
                </mxCell>
                <mxCell id="8" value="MQ" style="rounded=0;whiteSpace=wrap;html=1;fillColor=#dae8fc;strokeColor=#6c8ebf;" vertex="1" parent="3">
                    <mxGeometry x="470" y="30" width="100" height="60" as="geometry"/>
                </mxCell>
            </root>
        </mxGraphModel>
    </diagram>
</mxfile>